<?xml version="1.0" encoding="utf-8"?>
<!-- Generator: Adobe Illustrator 15.1.0, SVG Export Plug-In . SVG Version: 6.00 Build 0)  -->
<!DOCTYPE svg PUBLIC "-//W3C//DTD SVG 1.1//EN" "http://www.w3.org/Graphics/SVG/1.1/DTD/svg11.dtd">
<svg version="1.1" id="Layer_1" xmlns="http://www.w3.org/2000/svg" xmlns:xlink="http://www.w3.org/1999/xlink" x="0px" y="0px"
	 width="830px" height="100px" viewBox="0 0 830 100" enable-background="new 0 0 830 100" xml:space="preserve">
<g>
	<path fill="#E7E476" d="M-1435-1020c16.542,0,30,13.458,30,30s-13.458,30-30,30s-30-13.458-30-30S-1451.542-1020-1435-1020
		 M-1435-1040c-27.614,0-50,22.386-50,50s22.386,50,50,50s50-22.386,50-50S-1407.386-1040-1435-1040L-1435-1040z"/>
</g>
<g>
	<path fill="#2F417D" d="M-1915,3080c16.541,0,30,13.458,30,30s-13.459,30-30,30c-16.543,0-30-13.458-30-30
		S-1931.543,3080-1915,3080 M-1915,3060c-27.615,0-50,22.386-50,50s22.385,50,50,50c27.613,0,50-22.386,50-50
		S-1887.387,3060-1915,3060L-1915,3060z"/>
	<path fill="#4C5E97" d="M-1915,3200c16.541,0,30,13.458,30,30s-13.459,30-30,30c-16.543,0-30-13.458-30-30
		S-1931.543,3200-1915,3200 M-1915,3180c-27.615,0-50,22.386-50,50s22.385,50,50,50c27.613,0,50-22.386,50-50
		S-1887.387,3180-1915,3180L-1915,3180z"/>
	<path fill="#6476B1" d="M-1915,3320c16.541,0,30,13.458,30,30s-13.459,30-30,30c-16.543,0-30-13.458-30-30
		S-1931.543,3320-1915,3320 M-1915,3300c-27.615,0-50,22.386-50,50s22.385,50,50,50c27.613,0,50-22.386,50-50
		S-1887.387,3300-1915,3300L-1915,3300z"/>
	<path fill="#B8B43D" d="M-1775,3080c16.541,0,30,13.458,30,30s-13.459,30-30,30c-16.543,0-30-13.458-30-30
		S-1791.543,3080-1775,3080 M-1775,3060c-27.615,0-50,22.386-50,50s22.385,50,50,50c27.613,0,50-22.386,50-50
		S-1747.387,3060-1775,3060L-1775,3060z"/>
	<path fill="#DFDB62" d="M-1775,3200c16.541,0,30,13.458,30,30s-13.459,30-30,30c-16.543,0-30-13.458-30-30
		S-1791.543,3200-1775,3200 M-1775,3180c-27.615,0-50,22.386-50,50s22.385,50,50,50c27.613,0,50-22.386,50-50
		S-1747.387,3180-1775,3180L-1775,3180z"/>
	<path fill="#E7E476" d="M-1775,3320c16.541,0,30,13.458,30,30s-13.459,30-30,30c-16.543,0-30-13.458-30-30
		S-1791.543,3320-1775,3320 M-1775,3300c-27.615,0-50,22.386-50,50s22.385,50,50,50c27.613,0,50-22.386,50-50
		S-1747.387,3300-1775,3300L-1775,3300z"/>
	<path fill="#B85C3D" d="M-1635,3080c16.541,0,30,13.458,30,30s-13.459,30-30,30c-16.543,0-30-13.458-30-30
		S-1651.543,3080-1635,3080 M-1635,3060c-27.615,0-50,22.386-50,50s22.385,50,50,50c27.613,0,50-22.386,50-50
		S-1607.387,3060-1635,3060L-1635,3060z"/>
	<path fill="#DF8262" d="M-1635,3200c16.541,0,30,13.458,30,30s-13.459,30-30,30c-16.543,0-30-13.458-30-30
		S-1651.543,3200-1635,3200 M-1635,3180c-27.615,0-50,22.386-50,50s22.385,50,50,50c27.613,0,50-22.386,50-50
		S-1607.387,3180-1635,3180L-1635,3180z"/>
	<path fill="#E79C83" d="M-1635,3320c16.541,0,30,13.458,30,30s-13.459,30-30,30c-16.543,0-30-13.458-30-30
		S-1651.543,3320-1635,3320 M-1635,3300c-27.615,0-50,22.386-50,50s22.385,50,50,50c27.613,0,50-22.386,50-50
		S-1607.387,3300-1635,3300L-1635,3300z"/>
	<path fill="#333130" d="M-1495,3080c16.541,0,30,13.458,30,30s-13.459,30-30,30c-16.543,0-30-13.458-30-30
		S-1511.543,3080-1495,3080 M-1495,3060c-27.615,0-50,22.386-50,50s22.385,50,50,50c27.613,0,50-22.386,50-50
		S-1467.387,3060-1495,3060L-1495,3060z"/>
	<path fill="#64645F" d="M-1495,3200c16.541,0,30,13.458,30,30s-13.459,30-30,30c-16.543,0-30-13.458-30-30
		S-1511.543,3200-1495,3200 M-1495,3180c-27.615,0-50,22.386-50,50s22.385,50,50,50c27.613,0,50-22.386,50-50
		S-1467.387,3180-1495,3180L-1495,3180z"/>
	<path fill="#EBEBE6" d="M-1495,3320c16.541,0,30,13.458,30,30s-13.459,30-30,30c-16.543,0-30-13.458-30-30
		S-1511.543,3320-1495,3320 M-1495,3300c-27.615,0-50,22.386-50,50s22.385,50,50,50c27.613,0,50-22.386,50-50
		S-1467.387,3300-1495,3300L-1495,3300z"/>
</g>
<g>
	<rect x="-1484" y="-840" fill="#EBEBE6" width="90" height="100"/>
	<rect x="-1385" y="-840" fill="#EBEBE6" width="100" height="100"/>
	<rect x="-1275" y="-840" fill="#EBEBE6" width="90" height="100"/>
	<rect x="-1165" y="-840" fill="#EBEBE6" width="50" height="100"/>
	<rect x="-1105" y="-840" fill="#EBEBE6" width="100" height="100"/>
	<rect x="-985" y="-840" fill="#EBEBE6" width="100" height="100"/>
	<rect x="-865" y="-840" fill="#EBEBE6" width="100" height="100"/>
	<rect x="-755" y="-840" fill="#EBEBE6" width="100" height="100"/>
	<path fill="#474744" d="M-1335-820c16.542,0,30,13.458,30,30s-13.458,30-30,30s-30-13.458-30-30S-1351.542-820-1335-820 M-1335-840
		c-27.614,0-50,22.386-50,50s22.386,50,50,50s50-22.386,50-50S-1307.386-840-1335-840L-1335-840z"/>
	<path fill="#474744" d="M-1434-760c-16.542,0-30-13.458-30-30s13.458-30,30-30c8.271,0,15.771,3.364,21.203,8.797l14.152-14.152
		C-1407.693-834.403-1420.193-840-1434-840c-27.614,0-50,22.386-50,50s22.386,50,50,50c13.807,0,26.307-5.597,35.355-14.645
		l-14.152-14.152C-1418.229-763.364-1425.729-760-1434-760z"/>
	<path fill="#E7E476" d="M-1235-820c16.542,0,30,13.458,30,30s-13.458,30-30,30c-8.271,0-15.771-3.364-21.203-8.797l-14.152,14.152
		c9.048,9.048,21.548,14.645,35.355,14.645c27.614,0,50-22.386,50-50s-22.386-50-50-50c-13.807,0-26.307,5.597-35.355,14.645
		l14.152,14.152C-1250.771-816.636-1243.271-820-1235-820z"/>
	<path fill="#474744" d="M-1115-840c-11.257,0-21.643,3.722-30,9.999V-840h-20v100h20v-50c0-16.542,13.458-30,30-30V-840z"/>
	<path fill="#474744" d="M-1055-840c-27.614,0-50,22.386-50,50s22.386,50,50,50c11.257,0,21.643-3.722,30-9.999l-14.392-14.392
		c-4.55,2.783-9.896,4.391-15.608,4.391c-13.036,0-24.15-8.36-28.279-19.999h77.277c0.656-3.231,1.002-6.576,1.002-10.001
		C-1005-817.614-1027.386-840-1055-840z M-1083.28-799.999c4.128-11.64,15.243-20.001,28.28-20.001s24.152,8.361,28.28,20.001
		H-1083.28z"/>
	<path fill="#474744" d="M-905-840v9.999c-8.357-6.277-18.744-9.999-30-9.999c-27.615,0-50,22.386-50,50s22.385,50,50,50
		c11.256,0,21.643-3.722,30-9.999V-740h20v-100H-905z M-935-760c-16.543,0-30-13.458-30-30s13.457-30,30-30
		c16.541,0,30,13.458,30,30S-918.459-760-935-760z"/>
	<polygon fill="#474744" points="-765,-840 -865,-840 -865,-819.999 -825,-819.999 -825,-739.999 -805,-739.999 -805,-819.999 
		-765,-819.999 	"/>
	<path fill="#474744" d="M-705-840c-27.615,0-50,22.386-50,50s22.385,50,50,50c11.256,0,21.643-3.722,30-9.999l-14.393-14.392
		C-693.941-761.607-699.287-760-705-760c-13.037,0-24.15-8.36-28.279-19.999h77.277C-655.346-783.23-655-786.575-655-790
		C-655-817.614-677.387-840-705-840z M-733.281-799.999C-729.152-811.639-718.037-820-705-820s24.152,8.361,28.279,20.001H-733.281z
		"/>
</g>
<g>
	<path fill="#474744" d="M-1967,20.662c16.542,0,30,13.459,30,30c0,16.543-13.458,30-30,30s-30-13.457-30-30
		C-1997,34.121-1983.542,20.662-1967,20.662 M-1967,0.662c-27.614,0-50,22.387-50,50c0,27.615,22.386,50,50,50s50-22.385,50-50
		C-1917,23.049-1939.386,0.662-1967,0.662L-1967,0.662z"/>
	<path fill="#474744" d="M-2067,80.662c-16.542,0-30-13.457-30-30c0-16.541,13.458-30,30-30c8.271,0,15.771,3.365,21.203,8.797
		l14.152-14.152c-9.049-9.047-21.549-14.645-35.355-14.645c-27.614,0-50,22.387-50,50c0,27.615,22.386,50,50,50
		c13.807,0,26.307-5.596,35.355-14.645l-14.152-14.152C-2051.229,77.299-2058.729,80.662-2067,80.662z"/>
	<path fill="#DF8262" d="M-1867,20.662c16.542,0,30,13.459,30,30c0,16.543-13.458,30-30,30c-8.271,0-15.771-3.363-21.203-8.797
		l-14.152,14.152c9.049,9.049,21.549,14.645,35.355,14.645c27.614,0,50-22.385,50-50c0-27.613-22.386-50-50-50
		c-13.807,0-26.307,5.598-35.355,14.645l14.152,14.152C-1882.771,24.027-1875.271,20.662-1867,20.662z"/>
	<path fill="#474744" d="M-1747,0.662c-11.257,0-21.643,3.723-30,10v-10h-20v100h20v-50c0-16.541,13.458-30,30-30V0.662z"/>
	<path fill="#474744" d="M-1687,0.662c-27.614,0-50,22.387-50,50c0,27.615,22.386,50,50,50c11.257,0,21.643-3.721,30-9.998
		l-14.392-14.393c-4.55,2.783-9.896,4.391-15.608,4.391c-13.036,0-24.15-8.359-28.279-19.998h77.277
		c0.656-3.232,1.002-6.576,1.002-10.002C-1637,23.049-1659.387,0.662-1687,0.662z M-1715.28,40.664
		c4.128-11.641,15.243-20.002,28.28-20.002s24.152,8.361,28.279,20.002H-1715.28z"/>
	<path fill="#474744" d="M-1537,0.662v10c-8.357-6.277-18.744-10-30-10c-27.615,0-50,22.387-50,50c0,27.615,22.385,50,50,50
		c11.256,0,21.643-3.721,30-9.998v9.998h20v-100H-1537z M-1567,80.662c-16.543,0-30-13.457-30-30c0-16.541,13.457-30,30-30
		c16.541,0,30,13.459,30,30C-1537,67.205-1550.459,80.662-1567,80.662z"/>
	<polygon fill="#474744" points="-1397,0.662 -1497,0.662 -1497,20.664 -1457,20.664 -1457,100.664 -1437,100.664 -1437,20.664 
		-1397,20.664 	"/>
	<path fill="#474744" d="M-1337,0.662c-27.615,0-50,22.387-50,50c0,27.615,22.385,50,50,50c11.256,0,21.643-3.721,30-9.998
		l-14.393-14.393c-4.549,2.783-9.895,4.391-15.607,4.391c-13.037,0-24.15-8.359-28.279-19.998h77.277
		c0.656-3.232,1.002-6.576,1.002-10.002C-1287,23.049-1309.387,0.662-1337,0.662z M-1365.281,40.664
		c4.129-11.641,15.244-20.002,28.281-20.002s24.152,8.361,28.279,20.002H-1365.281z"/>
</g>
<rect x="-1145" y="-450" fill="#DF8262" width="1000" height="1000"/>
<g>
	<path fill="#EBEBE6" d="M-910,20c16.542,0,30,13.457,30,30c0,16.541-13.458,30-30,30s-30-13.459-30-30
		C-940,33.457-926.542,20-910,20 M-910,0c-27.614,0-50,22.385-50,50c0,27.613,22.386,50,50,50s50-22.387,50-50
		C-860,22.385-882.386,0-910,0L-910,0z"/>
	<path fill="#EBEBE6" d="M-1010,80c-16.542,0-30-13.459-30-30c0-16.543,13.458-30,30-30c8.271,0,15.771,3.363,21.203,8.797
		l14.152-14.152C-983.693,5.596-996.193,0-1010,0c-27.614,0-50,22.385-50,50c0,27.613,22.386,50,50,50
		c13.807,0,26.307-5.598,35.355-14.645l-14.152-14.152C-994.229,76.635-1001.729,80-1010,80z"/>
	<path fill="#EBEBE6" d="M-810,20c16.542,0,30,13.457,30,30c0,16.541-13.458,30-30,30c-8.271,0-15.771-3.365-21.203-8.797
		l-14.152,14.152C-836.307,94.402-823.807,100-810,100c27.614,0,50-22.387,50-50c0-27.615-22.386-50-50-50
		c-13.807,0-26.307,5.596-35.355,14.645l14.152,14.152C-825.771,23.363-818.271,20-810,20z"/>
	<path fill="#EBEBE6" d="M-690,0c-11.257,0-21.643,3.721-30,9.998V0h-20v100h20V50c0-16.543,13.458-30,30-30V0z"/>
	<path fill="#EBEBE6" d="M-630,0c-27.614,0-50,22.385-50,50c0,27.613,22.386,50,50,50c11.257,0,21.643-3.723,30-10l-14.392-14.391
		C-618.941,78.393-624.287,80-630,80c-13.036,0-24.15-8.361-28.279-20h77.277c0.656-3.23,1.002-6.576,1.002-10
		C-580,22.385-602.387,0-630,0z M-658.28,40c4.128-11.639,15.243-20,28.28-20s24.152,8.361,28.279,20H-658.28z"/>
	<path fill="#EBEBE6" d="M-480,0v9.998C-488.357,3.721-498.744,0-510,0c-27.615,0-50,22.385-50,50c0,27.613,22.385,50,50,50
		c11.256,0,21.643-3.723,30-10v10h20V0H-480z M-510,80c-16.543,0-30-13.459-30-30c0-16.543,13.457-30,30-30
		c16.541,0,30,13.457,30,30C-480,66.541-493.459,80-510,80z"/>
	<polygon fill="#EBEBE6" points="-340,0 -440,0 -440,20 -400,20 -400,100 -380,100 -380,20 -340,20 	"/>
	<path fill="#EBEBE6" d="M-280,0c-27.615,0-50,22.385-50,50c0,27.613,22.385,50,50,50c11.256,0,21.643-3.723,30-10l-14.393-14.391
		C-268.941,78.393-274.287,80-280,80c-13.037,0-24.15-8.361-28.279-20h77.277c0.656-3.23,1.002-6.576,1.002-10
		C-230,22.385-252.387,0-280,0z M-308.281,40c4.129-11.639,15.244-20,28.281-20s24.152,8.361,28.279,20H-308.281z"/>
</g>
<g>
	<path fill="#EBEBE6" d="M150,20c16.542,0,30,13.457,30,30c0,16.541-13.458,30-30,30s-30-13.459-30-30C120,33.457,133.458,20,150,20
		 M150,0c-27.614,0-50,22.385-50,50c0,27.613,22.386,50,50,50s50-22.387,50-50C200,22.385,177.614,0,150,0L150,0z"/>
	<path fill="#EBEBE6" d="M50,80c-16.542,0-30-13.459-30-30c0-16.543,13.458-30,30-30c8.271,0,15.771,3.363,21.203,8.797
		l14.152-14.152C76.307,5.596,63.807,0,50,0C22.386,0,0,22.385,0,50c0,27.613,22.386,50,50,50c13.807,0,26.307-5.598,35.355-14.645
		L71.203,71.203C65.771,76.635,58.271,80,50,80z"/>
	<path fill="#E79C83" d="M250,20c16.542,0,30,13.457,30,30c0,16.541-13.458,30-30,30c-8.271,0-15.771-3.365-21.203-8.797
		l-14.152,14.152C223.693,94.402,236.193,100,250,100c27.614,0,50-22.387,50-50c0-27.615-22.386-50-50-50
		c-13.807,0-26.307,5.596-35.355,14.645l14.152,14.152C234.229,23.363,241.729,20,250,20z"/>
	<path fill="#EBEBE6" d="M370,0c-11.257,0-21.643,3.721-30,9.998V0h-20v100h20V50c0-16.543,13.458-30,30-30V0z"/>
	<path fill="#EBEBE6" d="M430,0c-27.614,0-50,22.385-50,50c0,27.613,22.386,50,50,50c11.257,0,21.643-3.723,30-10l-14.392-14.391
		C441.059,78.393,435.713,80,430,80c-13.036,0-24.15-8.361-28.279-20h77.277c0.656-3.23,1.002-6.576,1.002-10
		C480,22.385,457.613,0,430,0z M401.72,40c4.128-11.639,15.243-20,28.28-20s24.152,8.361,28.279,20H401.72z"/>
	<path fill="#EBEBE6" d="M580,0v9.998C571.643,3.721,561.256,0,550,0c-27.615,0-50,22.385-50,50c0,27.613,22.385,50,50,50
		c11.256,0,21.643-3.723,30-10v10h20V0H580z M550,80c-16.543,0-30-13.459-30-30c0-16.543,13.457-30,30-30c16.541,0,30,13.457,30,30
		C580,66.541,566.541,80,550,80z"/>
	<polygon fill="#EBEBE6" points="720,0 620,0 620,20 660,20 660,100 680,100 680,20 720,20 	"/>
	<path fill="#EBEBE6" d="M780,0c-27.615,0-50,22.385-50,50c0,27.613,22.385,50,50,50c11.256,0,21.643-3.723,30-10l-14.393-14.391
		C791.059,78.393,785.713,80,780,80c-13.037,0-24.15-8.361-28.279-20h77.277c0.656-3.23,1.002-6.576,1.002-10
		C830,22.385,807.613,0,780,0z M751.719,40c4.129-11.639,15.244-20,28.281-20s24.152,8.361,28.279,20H751.719z"/>
</g>
<rect x="-1145" y="610" fill="#E7E476" width="1000" height="1000"/>
<g>
	<path fill="#FFFFFF" d="M-910,1080c16.542,0,30,13.457,30,30c0,16.541-13.458,30-30,30s-30-13.459-30-30
		C-940,1093.457-926.542,1080-910,1080 M-910,1060c-27.614,0-50,22.385-50,50c0,27.613,22.386,50,50,50s50-22.387,50-50
		C-860,1082.385-882.386,1060-910,1060L-910,1060z"/>
	<path fill="#FFFFFF" d="M-1010,1140c-16.542,0-30-13.459-30-30c0-16.543,13.458-30,30-30c8.271,0,15.771,3.363,21.203,8.797
		l14.152-14.152c-9.049-9.049-21.549-14.645-35.355-14.645c-27.614,0-50,22.385-50,50c0,27.613,22.386,50,50,50
		c13.807,0,26.307-5.598,35.355-14.645l-14.152-14.152C-994.229,1136.635-1001.729,1140-1010,1140z"/>
	<path fill="#FFFFFF" d="M-810,1080c16.542,0,30,13.457,30,30c0,16.541-13.458,30-30,30c-8.271,0-15.771-3.365-21.203-8.797
		l-14.152,14.152c9.049,9.047,21.549,14.645,35.355,14.645c27.614,0,50-22.387,50-50c0-27.615-22.386-50-50-50
		c-13.807,0-26.307,5.596-35.355,14.645l14.152,14.152C-825.771,1083.363-818.271,1080-810,1080z"/>
	<path fill="#FFFFFF" d="M-690,1060c-11.257,0-21.643,3.721-30,9.998V1060h-20v100h20v-50c0-16.543,13.458-30,30-30V1060z"/>
	<path fill="#FFFFFF" d="M-630,1060c-27.614,0-50,22.385-50,50c0,27.613,22.386,50,50,50c11.257,0,21.643-3.723,30-10
		l-14.392-14.391c-4.55,2.783-9.896,4.391-15.608,4.391c-13.036,0-24.15-8.361-28.279-20h77.277c0.656-3.23,1.002-6.576,1.002-10
		C-580,1082.385-602.387,1060-630,1060z M-658.28,1100c4.128-11.639,15.243-20,28.28-20s24.152,8.361,28.279,20H-658.28z"/>
	<path fill="#FFFFFF" d="M-480,1060v9.998c-8.357-6.277-18.744-9.998-30-9.998c-27.615,0-50,22.385-50,50c0,27.613,22.385,50,50,50
		c11.256,0,21.643-3.723,30-10v10h20v-100H-480z M-510,1140c-16.543,0-30-13.459-30-30c0-16.543,13.457-30,30-30
		c16.541,0,30,13.457,30,30C-480,1126.541-493.459,1140-510,1140z"/>
	<polygon fill="#FFFFFF" points="-340,1060 -440,1060 -440,1080 -400,1080 -400,1160 -380,1160 -380,1080 -340,1080 	"/>
	<path fill="#FFFFFF" d="M-280,1060c-27.615,0-50,22.385-50,50c0,27.613,22.385,50,50,50c11.256,0,21.643-3.723,30-10
		l-14.393-14.391c-4.549,2.783-9.895,4.391-15.607,4.391c-13.037,0-24.15-8.361-28.279-20h77.277c0.656-3.23,1.002-6.576,1.002-10
		C-230,1082.385-252.387,1060-280,1060z M-308.281,1100c4.129-11.639,15.244-20,28.281-20s24.152,8.361,28.279,20H-308.281z"/>
</g>
<rect x="-85" y="610" fill="#64645F" width="1000" height="1000"/>
<g>
	<path fill="#E1E1DC" d="M150,1080c16.542,0,30,13.457,30,30c0,16.541-13.458,30-30,30s-30-13.459-30-30
		C120,1093.457,133.458,1080,150,1080 M150,1060c-27.614,0-50,22.385-50,50c0,27.613,22.386,50,50,50s50-22.387,50-50
		C200,1082.385,177.614,1060,150,1060L150,1060z"/>
	<path fill="#E1E1DC" d="M50,1140c-16.542,0-30-13.459-30-30c0-16.543,13.458-30,30-30c8.271,0,15.771,3.363,21.203,8.797
		l14.152-14.152C76.307,1065.596,63.807,1060,50,1060c-27.614,0-50,22.385-50,50c0,27.613,22.386,50,50,50
		c13.807,0,26.307-5.598,35.355-14.645l-14.152-14.152C65.771,1136.635,58.271,1140,50,1140z"/>
	<path fill="#E7E476" d="M250,1080c16.542,0,30,13.457,30,30c0,16.541-13.458,30-30,30c-8.271,0-15.771-3.365-21.203-8.797
		l-14.152,14.152C223.693,1154.402,236.193,1160,250,1160c27.614,0,50-22.387,50-50c0-27.615-22.386-50-50-50
		c-13.807,0-26.307,5.596-35.355,14.645l14.152,14.152C234.229,1083.363,241.729,1080,250,1080z"/>
	<path fill="#E1E1DC" d="M370,1060c-11.257,0-21.643,3.721-30,9.998V1060h-20v100h20v-50c0-16.543,13.458-30,30-30V1060z"/>
	<path fill="#E1E1DC" d="M430,1060c-27.614,0-50,22.385-50,50c0,27.613,22.386,50,50,50c11.257,0,21.643-3.723,30-10l-14.392-14.391
		c-4.55,2.783-9.896,4.391-15.608,4.391c-13.036,0-24.15-8.361-28.279-20h77.277c0.656-3.23,1.002-6.576,1.002-10
		C480,1082.385,457.613,1060,430,1060z M401.72,1100c4.128-11.639,15.243-20,28.28-20s24.152,8.361,28.279,20H401.72z"/>
	<path fill="#E1E1DC" d="M580,1060v9.998c-8.357-6.277-18.744-9.998-30-9.998c-27.615,0-50,22.385-50,50c0,27.613,22.385,50,50,50
		c11.256,0,21.643-3.723,30-10v10h20v-100H580z M550,1140c-16.543,0-30-13.459-30-30c0-16.543,13.457-30,30-30
		c16.541,0,30,13.457,30,30C580,1126.541,566.541,1140,550,1140z"/>
	<polygon fill="#E1E1DC" points="720,1060 620,1060 620,1080 660,1080 660,1160 680,1160 680,1080 720,1080 	"/>
	<path fill="#E1E1DC" d="M780,1060c-27.615,0-50,22.385-50,50c0,27.613,22.385,50,50,50c11.256,0,21.643-3.723,30-10l-14.393-14.391
		c-4.549,2.783-9.895,4.391-15.607,4.391c-13.037,0-24.15-8.361-28.279-20h77.277c0.656-3.23,1.002-6.576,1.002-10
		C830,1082.385,807.613,1060,780,1060z M751.719,1100c4.129-11.639,15.244-20,28.281-20s24.152,8.361,28.279,20H751.719z"/>
</g>
<rect x="-1145" y="1670" fill="#6476B1" width="1000" height="1000"/>
<g>
	<path fill="#EBEBE6" d="M-910,2140c16.542,0,30,13.457,30,30c0,16.541-13.458,30-30,30s-30-13.459-30-30
		C-940,2153.457-926.542,2140-910,2140 M-910,2120c-27.614,0-50,22.385-50,50c0,27.613,22.386,50,50,50s50-22.387,50-50
		C-860,2142.385-882.386,2120-910,2120L-910,2120z"/>
	<path fill="#EBEBE6" d="M-1010,2200c-16.542,0-30-13.459-30-30c0-16.543,13.458-30,30-30c8.271,0,15.771,3.363,21.203,8.797
		l14.152-14.152c-9.049-9.049-21.549-14.645-35.355-14.645c-27.614,0-50,22.385-50,50c0,27.613,22.386,50,50,50
		c13.807,0,26.307-5.598,35.355-14.645l-14.152-14.152C-994.229,2196.635-1001.729,2200-1010,2200z"/>
	<path fill="#EBEBE6" d="M-810,2140c16.542,0,30,13.457,30,30c0,16.541-13.458,30-30,30c-8.271,0-15.771-3.365-21.203-8.797
		l-14.152,14.152c9.049,9.047,21.549,14.645,35.355,14.645c27.614,0,50-22.387,50-50c0-27.615-22.386-50-50-50
		c-13.807,0-26.307,5.596-35.355,14.645l14.152,14.152C-825.771,2143.363-818.271,2140-810,2140z"/>
	<path fill="#EBEBE6" d="M-690,2120c-11.257,0-21.643,3.721-30,9.998V2120h-20v100h20v-50c0-16.543,13.458-30,30-30V2120z"/>
	<path fill="#EBEBE6" d="M-630,2120c-27.614,0-50,22.385-50,50c0,27.613,22.386,50,50,50c11.257,0,21.643-3.723,30-10
		l-14.392-14.391c-4.55,2.783-9.896,4.391-15.608,4.391c-13.036,0-24.15-8.361-28.279-20h77.277c0.656-3.23,1.002-6.576,1.002-10
		C-580,2142.385-602.387,2120-630,2120z M-658.28,2160c4.128-11.639,15.243-20,28.28-20s24.152,8.361,28.279,20H-658.28z"/>
	<path fill="#EBEBE6" d="M-480,2120v9.998c-8.357-6.277-18.744-9.998-30-9.998c-27.615,0-50,22.385-50,50c0,27.613,22.385,50,50,50
		c11.256,0,21.643-3.723,30-10v10h20v-100H-480z M-510,2200c-16.543,0-30-13.459-30-30c0-16.543,13.457-30,30-30
		c16.541,0,30,13.457,30,30C-480,2186.541-493.459,2200-510,2200z"/>
	<polygon fill="#EBEBE6" points="-340,2120 -440,2120 -440,2140 -400,2140 -400,2220 -380,2220 -380,2140 -340,2140 	"/>
	<path fill="#EBEBE6" d="M-280,2120c-27.615,0-50,22.385-50,50c0,27.613,22.385,50,50,50c11.256,0,21.643-3.723,30-10
		l-14.393-14.391c-4.549,2.783-9.895,4.391-15.607,4.391c-13.037,0-24.15-8.361-28.279-20h77.277c0.656-3.23,1.002-6.576,1.002-10
		C-230,2142.385-252.387,2120-280,2120z M-308.281,2160c4.129-11.639,15.244-20,28.281-20s24.152,8.361,28.279,20H-308.281z"/>
</g>
<rect x="-85" y="1670" fill="#64645F" width="1000" height="1000"/>
<g>
	<path fill="#EBEBE6" d="M150,2140c16.542,0,30,13.457,30,30c0,16.541-13.458,30-30,30s-30-13.459-30-30
		C120,2153.457,133.458,2140,150,2140 M150,2120c-27.614,0-50,22.385-50,50c0,27.613,22.386,50,50,50s50-22.387,50-50
		C200,2142.385,177.614,2120,150,2120L150,2120z"/>
	<path fill="#EBEBE6" d="M50,2200c-16.542,0-30-13.459-30-30c0-16.543,13.458-30,30-30c8.271,0,15.771,3.363,21.203,8.797
		l14.152-14.152C76.307,2125.596,63.807,2120,50,2120c-27.614,0-50,22.385-50,50c0,27.613,22.386,50,50,50
		c13.807,0,26.307-5.598,35.355-14.645l-14.152-14.152C65.771,2196.635,58.271,2200,50,2200z"/>
	<path fill="#6476B1" d="M250,2140c16.542,0,30,13.457,30,30c0,16.541-13.458,30-30,30c-8.271,0-15.771-3.365-21.203-8.797
		l-14.152,14.152C223.693,2214.402,236.193,2220,250,2220c27.614,0,50-22.387,50-50c0-27.615-22.386-50-50-50
		c-13.807,0-26.307,5.596-35.355,14.645l14.152,14.152C234.229,2143.363,241.729,2140,250,2140z"/>
	<path fill="#EBEBE6" d="M370,2120c-11.257,0-21.643,3.721-30,9.998V2120h-20v100h20v-50c0-16.543,13.458-30,30-30V2120z"/>
	<path fill="#EBEBE6" d="M430,2120c-27.614,0-50,22.385-50,50c0,27.613,22.386,50,50,50c11.257,0,21.643-3.723,30-10l-14.392-14.391
		c-4.55,2.783-9.896,4.391-15.608,4.391c-13.036,0-24.15-8.361-28.279-20h77.277c0.656-3.23,1.002-6.576,1.002-10
		C480,2142.385,457.613,2120,430,2120z M401.72,2160c4.128-11.639,15.243-20,28.28-20s24.152,8.361,28.279,20H401.72z"/>
	<path fill="#EBEBE6" d="M580,2120v9.998c-8.357-6.277-18.744-9.998-30-9.998c-27.615,0-50,22.385-50,50c0,27.613,22.385,50,50,50
		c11.256,0,21.643-3.723,30-10v10h20v-100H580z M550,2200c-16.543,0-30-13.459-30-30c0-16.543,13.457-30,30-30
		c16.541,0,30,13.457,30,30C580,2186.541,566.541,2200,550,2200z"/>
	<polygon fill="#EBEBE6" points="720,2120 620,2120 620,2140 660,2140 660,2220 680,2220 680,2140 720,2140 	"/>
	<path fill="#EBEBE6" d="M780,2120c-27.615,0-50,22.385-50,50c0,27.613,22.385,50,50,50c11.256,0,21.643-3.723,30-10l-14.393-14.391
		c-4.549,2.783-9.895,4.391-15.607,4.391c-13.037,0-24.15-8.361-28.279-20h77.277c0.656-3.23,1.002-6.576,1.002-10
		C830,2142.385,807.613,2120,780,2120z M751.719,2160c4.129-11.639,15.244-20,28.281-20s24.152,8.361,28.279,20H751.719z"/>
</g>
<g>
	<path fill="#474744" d="M-1970,2140c16.542,0,30,13.457,30,30c0,16.541-13.458,30-30,30s-30-13.459-30-30
		C-2000,2153.457-1986.542,2140-1970,2140 M-1970,2120c-27.614,0-50,22.385-50,50c0,27.613,22.386,50,50,50s50-22.387,50-50
		C-1920,2142.385-1942.386,2120-1970,2120L-1970,2120z"/>
	<path fill="#474744" d="M-2070,2200c-16.542,0-30-13.459-30-30c0-16.543,13.458-30,30-30c8.271,0,15.771,3.363,21.203,8.797
		l14.152-14.152c-9.048-9.049-21.548-14.645-35.355-14.645c-27.614,0-50,22.385-50,50c0,27.613,22.386,50,50,50
		c13.808,0,26.308-5.598,35.355-14.645l-14.152-14.152C-2054.229,2196.635-2061.729,2200-2070,2200z"/>
	<path fill="#6476B1" d="M-1870,2140c16.542,0,30,13.457,30,30c0,16.541-13.458,30-30,30c-8.271,0-15.771-3.365-21.203-8.797
		l-14.152,14.152c9.048,9.047,21.548,14.645,35.355,14.645c27.614,0,50-22.387,50-50c0-27.615-22.386-50-50-50
		c-13.808,0-26.308,5.596-35.355,14.645l14.152,14.152C-1885.771,2143.363-1878.271,2140-1870,2140z"/>
	<path fill="#474744" d="M-1750,2120c-11.257,0-21.643,3.721-30,9.998V2120h-20v100h20v-50c0-16.543,13.458-30,30-30V2120z"/>
	<path fill="#474744" d="M-1690,2120c-27.614,0-50,22.385-50,50c0,27.613,22.386,50,50,50c11.257,0,21.643-3.723,30-10
		l-14.392-14.391c-4.55,2.783-9.896,4.391-15.608,4.391c-13.036,0-24.15-8.361-28.279-20h77.277c0.656-3.23,1.002-6.576,1.002-10
		C-1640,2142.385-1662.387,2120-1690,2120z M-1718.28,2160c4.128-11.639,15.243-20,28.28-20s24.152,8.361,28.279,20H-1718.28z"/>
	<path fill="#474744" d="M-1540,2120v9.998c-8.357-6.277-18.744-9.998-30-9.998c-27.615,0-50,22.385-50,50c0,27.613,22.385,50,50,50
		c11.256,0,21.643-3.723,30-10v10h20v-100H-1540z M-1570,2200c-16.543,0-30-13.459-30-30c0-16.543,13.457-30,30-30
		c16.541,0,30,13.457,30,30C-1540,2186.541-1553.459,2200-1570,2200z"/>
	<polygon fill="#474744" points="-1400,2120 -1500,2120 -1500,2140 -1460,2140 -1460,2220 -1440,2220 -1440,2140 -1400,2140 	"/>
	<path fill="#474744" d="M-1340,2120c-27.615,0-50,22.385-50,50c0,27.613,22.385,50,50,50c11.256,0,21.643-3.723,30-10
		l-14.393-14.391c-4.549,2.783-9.895,4.391-15.607,4.391c-13.037,0-24.15-8.361-28.279-20h77.277c0.656-3.23,1.002-6.576,1.002-10
		C-1290,2142.385-1312.387,2120-1340,2120z M-1368.281,2160c4.129-11.639,15.244-20,28.281-20s24.152,8.361,28.279,20H-1368.281z"/>
</g>
<g>
	<path fill="#474744" d="M-1970,1080c16.543,0,30,13.457,30,30c0,16.541-13.457,30-30,30c-16.541,0-30-13.459-30-30
		C-2000,1093.457-1986.542,1080-1970,1080 M-1970,1060c-27.613,0-50,22.385-50,50c0,27.613,22.387,50,50,50
		c27.615,0,50-22.387,50-50C-1920,1082.385-1942.385,1060-1970,1060L-1970,1060z"/>
	<path fill="#474744" d="M-2070,1140c-16.541,0-30-13.459-30-30c0-16.543,13.459-30,30-30c8.271,0,15.771,3.363,21.203,8.797
		l14.152-14.152c-9.048-9.049-21.548-14.645-35.355-14.645c-27.613,0-50,22.385-50,50c0,27.613,22.387,50,50,50
		c13.808,0,26.308-5.598,35.355-14.645l-14.152-14.152C-2054.229,1136.635-2061.729,1140-2070,1140z"/>
	<path fill="#DFDB62" d="M-1870,1080c16.543,0,30,13.457,30,30c0,16.541-13.457,30-30,30c-8.271,0-15.771-3.365-21.203-8.797
		l-14.152,14.152c9.049,9.047,21.549,14.645,35.355,14.645c27.615,0,50-22.387,50-50c0-27.615-22.385-50-50-50
		c-13.807,0-26.307,5.596-35.355,14.645l14.152,14.152C-1885.771,1083.363-1878.271,1080-1870,1080z"/>
	<path fill="#474744" d="M-1750,1060c-11.256,0-21.643,3.721-30,9.998V1060h-20v100h20v-50c0-16.543,13.459-30,30-30V1060z"/>
	<path fill="#474744" d="M-1690,1060c-27.613,0-50,22.385-50,50c0,27.613,22.387,50,50,50c11.258,0,21.643-3.723,30-10
		l-14.391-14.391c-4.551,2.783-9.896,4.391-15.609,4.391c-13.035,0-24.15-8.361-28.279-20h77.277c0.656-3.23,1.002-6.576,1.002-10
		C-1640,1082.385-1662.387,1060-1690,1060z M-1718.28,1100c4.127-11.639,15.242-20,28.279-20s24.152,8.361,28.279,20H-1718.28z"/>
	<path fill="#474744" d="M-1540,1060v9.998c-8.357-6.277-18.744-9.998-30-9.998c-27.615,0-50,22.385-50,50c0,27.613,22.385,50,50,50
		c11.256,0,21.643-3.723,30-10v10h20v-100H-1540z M-1570,1140c-16.543,0-30-13.459-30-30c0-16.543,13.457-30,30-30
		c16.541,0,30,13.457,30,30C-1540,1126.541-1553.459,1140-1570,1140z"/>
	<polygon fill="#474744" points="-1400,1060 -1500,1060 -1500,1080 -1460,1080 -1460,1160 -1440,1160 -1440,1080 -1400,1080 	"/>
	<path fill="#474744" d="M-1340,1060c-27.615,0-50,22.385-50,50c0,27.613,22.385,50,50,50c11.256,0,21.643-3.723,30-10
		l-14.393-14.391c-4.549,2.783-9.895,4.391-15.607,4.391c-13.037,0-24.15-8.361-28.279-20h77.277c0.656-3.23,1.002-6.576,1.002-10
		C-1290,1082.385-1312.387,1060-1340,1060z M-1368.282,1100c4.129-11.639,15.244-20,28.281-20s24.152,8.361,28.279,20H-1368.282z"/>
</g>
</svg>
