<?xml version="1.0" encoding="utf-8"?>
<!-- Generator: Adobe Illustrator 15.1.0, SVG Export Plug-In . SVG Version: 6.00 Build 0)  -->
<!DOCTYPE svg PUBLIC "-//W3C//DTD SVG 1.1//EN" "http://www.w3.org/Graphics/SVG/1.1/DTD/svg11.dtd">
<svg version="1.1" id="Layer_1" xmlns="http://www.w3.org/2000/svg" xmlns:xlink="http://www.w3.org/1999/xlink" x="0px" y="0px"
	 width="817.608px" height="304.744px" viewBox="0 0 817.608 304.744" enable-background="new 0 0 817.608 304.744"
	 xml:space="preserve">
<g>
	<linearGradient id="SVGID_1_" gradientUnits="userSpaceOnUse" x1="433.751" y1="-51.9834" x2="101.2003" y2="153.2951">
		<stop  offset="0.113" style="stop-color:#00ADEE"/>
		<stop  offset="1" style="stop-color:#0094D9"/>
	</linearGradient>
	<path fill="url(#SVGID_1_)" d="M74.386,68.112c6.224-50.038,103.457-73.39,114.326-16.325
		c15.549,81.59-104.509,8.087-75.109,52.193c29.404,44.102,118.423-1.841,107.771-58.73c-5.428-28.956-40.917-41.425-45.723-42.458
		C114.198-10.426,64.738,26.184,51.52,51.787c-40.568,78.713,62.832,135.411,68.597,182.907
		c2.501,20.599-11.969,59.718-58.79,52.264c-30.093-4.796-42.636-59.711-5.701-57.212c16.398,1.112,13.879,36.753,32.665,3.268
		c9.799-57.168-106.735-31.845-85.758,40.876c17.436,60.433,178.372,29.229,143.722-68.586
		C127.137,151.782,65.936,136.275,74.386,68.112z"/>
	<g>
		<linearGradient id="SVGID_2_" gradientUnits="userSpaceOnUse" x1="570.1084" y1="168.915" x2="237.5582" y2="374.1932">
			<stop  offset="0.113" style="stop-color:#00ADEE"/>
			<stop  offset="1" style="stop-color:#0094D9"/>
		</linearGradient>
		<path fill="url(#SVGID_2_)" d="M817.369,219.129c-3.632-15.497-36.11,39.208-53.931,35.163
			c0.449-3.017,23.743-58.177,27.003-74.683c2.094-8.104,2.591-15.746-0.881-20.046c-39.342-48.759-117.349,27.802-125.441,77.986
			c-12.766,12.502-27.562,21.746-37.725,16.742c-29.354-14.418,28.025-41.295,29.398-71.848c-8.373-7.971-25.85-6.816-42.473-6.536
			c9.07-9.862,14.79-37.635,9.806-42.468c-40.238-39.083-82.773,44.595-39.195,65.328c-12.172,11.38-19.675,19.506-39.196,19.599
			c9.296-30.371,0.896-66.507-19.4-71.722c-54.763-14.022-66.444,83.823-13.258,94.58c-9.329,7.021-22.251,17.113-35.926,13.068
			c-37.698-11.128-18.724-62.938,3.259-94.729c-36.197,3.709-44.037,44.851-48.124,71.82c0,0-18.773,11.423-36.799,22.908
			c1.41-41.631,52.153-88.099,29.394-104.527c-22.752-16.412-56.866,28.025-75.114,32.679c3.335-9.259,15.508-40.629,4.711-38.358
			c-23.574,7.103-43.809,18.977-43.914,22.03c-1.875,7.628,6.184,5.193,7.115,9.757c6.327,30.859-24.043,73.023-56.106,78.419
			c0.448-3.017,1.015-5.719,1.642-8.225c2.694-6.04,22.092-49.952,25.364-66.458c2.083-8.104,2.577-15.746-0.872-20.046
			c-55.419-68.668-187.526,111.198-93.064,115.923c16.328,0.813,29.396-8.177,40.794-17.919c5.554,33.044,47.563,6.79,58.797-3.275
			c-4.865,7.307-15.5,19.164-0.83,20.747c36.133,4.324,47.826-95.512,97.167-96.255c-3.493,11.284-32.97,68.131-24.479,85.309
			c15.94,26.854,42.513-2.494,68.593-16.331c13.529,48.862,81.729,23.644,97.987-6.538c33.191,1.186,52.271-24.49,68.125-39.518
			c4.003-3.785,13.074,1.633,15.25,1.099c-45.613,54.084,5.452,99.79,49.717,52.72c3.344,11.282,13.13,19.024,31.74,19.962
			c16.33,0.813,29.391-8.177,40.799-17.919c6.663,33.191,45.67,18.039,69.74-14.991
			C807.045,242.576,819.468,228.052,817.369,219.129z M257.333,180.926c-3.223,11.29-18.006,44.082-23.381,54.825
			c-0.074,0.153-0.105,0.281-0.179,0.413c-5.354,9.7-25.082,21.361-28.731,18.128c-30.905-27.451,13.109-101.383,47.721-86.538
			l0.021,0.015c0.599,0.245,1.204,0.524,1.795,0.832C256.661,169.965,259.523,173.291,257.333,180.926z M521.876,215.096
			c-24.309,2.479-41.709-37.207-19.835-48.566C526.754,157.438,521.974,193.23,521.876,215.096z M600.274,169.363
			c-9.848-5.117-14.041-25.124-3.276-32.654C608.896,139.078,602.583,161.595,600.274,169.363z M760.206,180.926
			c-3.233,11.29-18.016,44.082-23.391,54.825c-0.063,0.153-0.106,0.281-0.17,0.413c-5.359,9.7-25.083,21.361-28.737,18.128
			C677,226.841,721.024,152.909,755.63,167.754h0.015c0,0,0,0.015,0.014,0.015c0.593,0.245,1.188,0.524,1.783,0.832
			C759.519,169.965,762.39,173.291,760.206,180.926z"/>
		<g>
			<linearGradient id="SVGID_3_" gradientUnits="userSpaceOnUse" x1="523.0381" y1="85.2852" x2="190.4556" y2="290.5833">
				<stop  offset="0.113" style="stop-color:#00ADEE"/>
				<stop  offset="1" style="stop-color:#0094D9"/>
			</linearGradient>
			<path fill="url(#SVGID_3_)" d="M468.801,128.201c5.108-0.164,9.11-4.437,8.931-9.557c-0.162-5.109-4.438-9.114-9.548-8.942
				c-5.116,0.179-9.112,4.463-8.951,9.568C459.406,124.359,463.691,128.373,468.801,128.201z"/>
			<linearGradient id="SVGID_4_" gradientUnits="userSpaceOnUse" x1="540.0664" y1="115.0708" x2="207.5087" y2="320.3536">
				<stop  offset="0.113" style="stop-color:#00ADEE"/>
				<stop  offset="1" style="stop-color:#0094D9"/>
			</linearGradient>
			<path fill="url(#SVGID_4_)" d="M534.096,128.201c5.117-0.171,9.12-4.458,8.938-9.563c-0.168-5.103-4.452-9.121-9.562-8.938
				c-5.107,0.172-9.11,4.437-8.937,9.554C524.696,124.366,528.979,128.373,534.096,128.201z"/>
			<linearGradient id="SVGID_5_" gradientUnits="userSpaceOnUse" x1="525.3701" y1="89.0918" x2="192.8614" y2="294.3444">
				<stop  offset="0.113" style="stop-color:#00ADEE"/>
				<stop  offset="1" style="stop-color:#0094D9"/>
			</linearGradient>
			<path fill="url(#SVGID_5_)" d="M502.061,112.925c5.104-0.175,9.112-4.455,8.931-9.554c-0.168-5.116-4.437-9.105-9.555-8.951
				c-5.107,0.174-9.104,4.458-8.931,9.561C492.668,109.097,496.952,113.097,502.061,112.925z"/>
		</g>
	</g>
</g>
</svg>
