<?xml version="1.0" encoding="UTF-8" standalone="no"?>
<!-- Created with Inkscape (http://www.inkscape.org/) -->

<svg
   xmlns:dc="http://purl.org/dc/elements/1.1/"
   xmlns:cc="http://creativecommons.org/ns#"
   xmlns:rdf="http://www.w3.org/1999/02/22-rdf-syntax-ns#"
   xmlns:svg="http://www.w3.org/2000/svg"
   xmlns="http://www.w3.org/2000/svg"
   version="1.1"
   width="102.92481"
   height="23.247"
   viewBox="0 0 102.92481 23.246999"
   id="svg2"
   xml:space="preserve"><metadata
     id="metadata290"><rdf:RDF><cc:Work
         rdf:about=""><dc:format>image/svg+xml</dc:format><dc:type
           rdf:resource="http://purl.org/dc/dcmitype/StillImage" /><dc:title></dc:title></cc:Work></rdf:RDF></metadata><defs
     id="defs288" /><style
     type="text/css"
     id="style4" /><path
     d="m 37.066153,14.298601 1.744,0 c 0.341328,2e-6 0.581328,-0.06933 0.72,-0.208 0.149328,-0.149331 0.223994,-0.394664 0.224,-0.736 l 0,-4.8799996 c -6e-6,-0.3413254 -0.07467,-0.5813252 -0.224,-0.72 -0.138672,-0.1493249 -0.378672,-0.2239915 -0.72,-0.224 l -1.744,0 c -0.117336,8.5e-6 -0.176003,0.058675 -0.176,0.176 l 0,6.4159996 c -3e-6,0.117336 0.05866,0.176002 0.176,0.176 m -2.208,1.424 0,-9.6159996 c -1e-6,-0.2239898 0.111999,-0.3359897 0.336,-0.336 l 3.952,0 c 0.831994,1.03e-5 1.477327,0.2293434 1.936,0.688 0.469326,0.4480091 0.703992,1.0880085 0.704,1.92 l 0,5.0719996 c -8e-6,0.832002 -0.234674,1.477335 -0.704,1.936 -0.458673,0.448001 -1.104006,0.672 -1.936,0.672 l -3.952,0 c -0.224001,0 -0.336001,-0.112 -0.336,-0.336"
     id="path3023"
     style="font-size:16px;font-style:normal;font-variant:normal;font-weight:bold;font-stretch:normal;line-height:125%;letter-spacing:0px;word-spacing:0px;fill:#007d31;fill-opacity:1;stroke:none;font-family:Rajdhani;-inkscape-font-specification:Rajdhani Bold" /><path
     d="m 45.813903,6.1066014 0,9.6159996 c -3e-6,0.224 -0.112003,0.336 -0.336,0.336 l -1.36,0 c -0.224001,0 -0.336001,-0.112 -0.336,-0.336 l 0,-9.6159996 c -10e-7,-0.2239898 0.111999,-0.3359897 0.336,-0.336 l 1.36,0 c 0.223997,1.03e-5 0.335997,0.1120102 0.336,0.336"
     id="path3025"
     style="font-size:16px;font-style:normal;font-variant:normal;font-weight:bold;font-stretch:normal;line-height:125%;letter-spacing:0px;word-spacing:0px;fill:#007d31;fill-opacity:1;stroke:none;font-family:Rajdhani;-inkscape-font-specification:Rajdhani Bold" /><path
     d="m 49.647153,16.058601 -1.328,0 c -0.224001,0 -0.336001,-0.112 -0.336,-0.336 l 0,-9.6159996 c -1e-6,-0.2239898 0.111999,-0.3359897 0.336,-0.336 l 1.2,0 c 0.223998,1.03e-5 0.373331,0.074677 0.448,0.224 l 3.232,6.0639996 0.064,0 0,-5.9519996 c -6e-6,-0.2239898 0.111994,-0.3359897 0.336,-0.336 l 1.328,0 c 0.223992,1.03e-5 0.335992,0.1120102 0.336,0.336 l 0,9.6159996 c -8e-6,0.224 -0.112008,0.336 -0.336,0.336 l -1.168,0 c -0.234673,0 -0.405339,-0.106666 -0.512,-0.32 l -3.2,-5.9519996 -0.064,0 0,5.9359996 c -3e-6,0.224 -0.112003,0.336 -0.336,0.336"
     id="path3027"
     style="font-size:16px;font-style:normal;font-variant:normal;font-weight:bold;font-stretch:normal;line-height:125%;letter-spacing:0px;word-spacing:0px;fill:#007d31;fill-opacity:1;stroke:none;font-family:Rajdhani;-inkscape-font-specification:Rajdhani Bold" /><path
     d="m 62.926153,16.058601 -5.232,0 c -0.224001,0 -0.336001,-0.112 -0.336,-0.336 l 0,-9.6159996 c -1e-6,-0.2239898 0.111999,-0.3359897 0.336,-0.336 l 5.232,0 c 0.213327,1.03e-5 0.319993,0.1120102 0.32,0.336 l 0,1.088 c -7e-6,0.2240086 -0.106673,0.3360085 -0.32,0.336 l -3.344,0 c -0.128003,8.5e-6 -0.192003,0.058675 -0.192,0.176 l 0,2.08 c -3e-6,0.1173395 0.064,0.1760061 0.192,0.176 l 2.736,0 c 0.223994,6.1e-6 0.335994,0.1120056 0.336,0.3359996 l 0,1.088 c -6e-6,0.224005 -0.112006,0.336005 -0.336,0.336 l -2.736,0 c -0.128003,5e-6 -0.192003,0.05867 -0.192,0.176 l 0,2.224 c -3e-6,0.117336 0.064,0.176002 0.192,0.176 l 3.344,0 c 0.213327,2e-6 0.319993,0.112002 0.32,0.336 l 0,1.088 c -7e-6,0.224 -0.106673,0.336 -0.32,0.336"
     id="path3029"
     style="font-size:16px;font-style:normal;font-variant:normal;font-weight:bold;font-stretch:normal;line-height:125%;letter-spacing:0px;word-spacing:0px;fill:#007d31;fill-opacity:1;stroke:none;font-family:Rajdhani;-inkscape-font-specification:Rajdhani Bold" /><path
     d="m 69.190403,16.058601 -1.696,0 c -0.842669,0 -1.493335,-0.223999 -1.952,-0.672 -0.458667,-0.447999 -0.688,-1.093331 -0.688,-1.936 l 0,-5.0719996 c 0,-0.8426582 0.229333,-1.4879909 0.688,-1.936 0.458665,-0.44799 1.109331,-0.6719897 1.952,-0.672 l 1.696,0 c 0.831994,1.03e-5 1.477327,0.2293434 1.936,0.688 0.458659,0.4480091 0.687993,1.0880085 0.688,1.92 l 0,0.48 c -7e-6,0.2346736 -0.112007,0.3520068 -0.336,0.352 l -1.36,0 c -0.224006,6.8e-6 -0.336005,-0.1173264 -0.336,-0.352 l 0,-0.384 c -5e-6,-0.3413254 -0.06934,-0.5813252 -0.208,-0.72 -0.138672,-0.1493249 -0.378672,-0.2239915 -0.72,-0.224 l -1.04,0 c -0.33067,8.5e-6 -0.57067,0.074675 -0.72,0.224 -0.138669,0.1386748 -0.208003,0.3786746 -0.208,0.72 l 0,4.8799996 c -3e-6,0.341336 0.06933,0.586669 0.208,0.736 0.14933,0.138669 0.38933,0.208002 0.72,0.208 l 1.04,0 c 0.341328,2e-6 0.581328,-0.06933 0.72,-0.208 0.138661,-0.149331 0.207995,-0.394664 0.208,-0.736 l 0,-1.008 c -5e-6,-0.117329 -0.05867,-0.175996 -0.176,-0.176 l -0.96,0 c -0.224004,4e-6 -0.336004,-0.111996 -0.336,-0.336 l 0,-1.088 c -4e-6,-0.223994 0.111996,-0.335994 0.336,-0.336 l 2.8,0 c 0.245326,6e-6 0.367993,0.122673 0.368,0.368 l 0,2.672 c -7e-6,0.832002 -0.229341,1.477335 -0.688,1.936 -0.458673,0.448001 -1.104006,0.672 -1.936,0.672"
     id="path3031"
     style="font-size:16px;font-style:normal;font-variant:normal;font-weight:bold;font-stretch:normal;line-height:125%;letter-spacing:0px;word-spacing:0px;fill:#007d31;fill-opacity:1;stroke:none;font-family:Rajdhani;-inkscape-font-specification:Rajdhani Bold" /><path
     d="m 75.429153,16.058601 -1.36,0 c -0.224001,0 -0.336001,-0.112 -0.336,-0.336 l 0,-9.6159996 c -10e-7,-0.2239898 0.111999,-0.3359897 0.336,-0.336 l 3.808,0 c 0.831994,1.03e-5 1.48266,0.2293434 1.952,0.688 0.469326,0.4586758 0.703993,1.1040085 0.704,1.936 l 0,1.248 c -7e-6,1.2053386 -0.474674,2.0053376 -1.424,2.3999996 l 0,0.064 1.712,3.568 c 0.09599,0.256001 0.0053,0.384 -0.272,0.384 l -1.296,0 c -0.192006,0 -0.330673,-0.02133 -0.416,-0.064 -0.08534,-0.04267 -0.154672,-0.133333 -0.208,-0.272 l -1.6,-3.456 -1.072,0 c -0.128003,4e-6 -0.192003,0.05867 -0.192,0.176 l 0,3.28 c -3e-6,0.224 -0.112003,0.336 -0.336,0.336 m 0.512,-5.424 1.568,0 c 0.341329,6e-6 0.591995,-0.06933 0.752,-0.208 0.159995,-0.149327 0.239995,-0.383994 0.24,-0.7039996 l 0,-1.248 c -5e-6,-0.3306588 -0.08,-0.5706585 -0.24,-0.72 -0.160005,-0.1493249 -0.410671,-0.2239915 -0.752,-0.224 l -1.568,0 c -0.117336,8.5e-6 -0.176003,0.058675 -0.176,0.176 l 0,2.7519996 c -3e-6,0.117339 0.05866,0.176006 0.176,0.176"
     id="path3033"
     style="font-size:16px;font-style:normal;font-variant:normal;font-weight:bold;font-stretch:normal;line-height:125%;letter-spacing:0px;word-spacing:0px;fill:#007d31;fill-opacity:1;stroke:none;font-family:Rajdhani;-inkscape-font-specification:Rajdhani Bold" /><path
     d="m 83.555153,16.058601 -1.536,0 c -0.192,0 -0.256,-0.112 -0.192,-0.336 l 2.528,-9.6159996 c 0.07466,-0.2239898 0.234664,-0.3359897 0.48,-0.336 l 2.128,0 c 0.266661,1.03e-5 0.426661,0.1120102 0.48,0.336 l 2.528,9.6159996 c 0.06399,0.224 -8e-6,0.336 -0.192,0.336 l -1.536,0 c -0.11734,0 -0.19734,-0.02133 -0.24,-0.064 -0.04267,-0.05333 -0.07467,-0.143999 -0.096,-0.272 l -0.448,-1.76 -3.12,0 -0.448,1.76 c -0.02134,0.128001 -0.05867,0.218667 -0.112,0.272 -0.04267,0.04267 -0.117335,0.064 -0.224,0.064 m 2.32,-8.3519996 -1.152,4.6239996 2.368,0 -1.152,-4.6239996 -0.064,0"
     id="path3035"
     style="font-size:16px;font-style:normal;font-variant:normal;font-weight:bold;font-stretch:normal;line-height:125%;letter-spacing:0px;word-spacing:0px;fill:#007d31;fill-opacity:1;stroke:none;font-family:Rajdhani;-inkscape-font-specification:Rajdhani Bold" /><g
     transform="translate(-2.9959901,0.0589997)"
     id="nyt_x5F_exporter_x5F_info"
     style="display:none"><text
       transform="translate(-270,30)"
       id="text284"
       style="font-size:12px;display:inline;font-family:MyriadPro-Regular">&lt;nyt_prefs&gt;  &lt;nyt_prefix&gt;&lt;/nyt_prefix&gt;  &lt;nyt_suffix&gt;&lt;/nyt_suffix&gt;  &lt;nyt_base_path&gt;~/Desktop/svg&lt;/nyt_base_path&gt;  &lt;nyt_scaling&gt;100&lt;/nyt_scaling&gt;  &lt;nyt_transparency&gt;true&lt;/nyt_transparency&gt;  &lt;nyt_embedImage&gt;true&lt;/nyt_embedImage&gt;  &lt;nyt_embedFont&gt;true&lt;/nyt_embedFont&gt;  &lt;nyt_trimEdges&gt;true&lt;/nyt_trimEdges&gt;  &lt;nyt_innerPadding&gt;false&lt;/nyt_innerPadding&gt;  &lt;nyt_format&gt;SVG&lt;/nyt_format&gt;  &lt;nyt_artboards&gt;all&lt;/nyt_artboards&gt;  &lt;nyt_layers&gt;all&lt;/nyt_layers&gt;  &lt;nyt_exportArtboards&gt;false&lt;/nyt_exportArtboards&gt;  &lt;nyt_ignoreWarnings&gt;false&lt;/nyt_ignoreWarnings&gt;&lt;/nyt_prefs&gt;</text>
</g><g
     transform="matrix(-1,0,0,-1,20.983999,23.187999)"
     id="g3405"
     style="fill:#007d31;fill-opacity:1;stroke:#007d31;stroke-opacity:1"><path
       d="M 10.618,5.109 C 9.702,4.157 7.282,0.941 7.282,0.941 c 0,0 -3.419,3.553 -3.282,13.237 0.058,4.057 3.29,7.347 7.348,7.347 4.057,0 7.915,-3.329 7.347,-7.347 C 17.953,8.939 13.014,7.6 10.618,5.109 z"
       id="path111"
       style="fill:#007d31;fill-opacity:1;stroke:#007d31;stroke-width:2;stroke-linejoin:round;stroke-miterlimit:10;stroke-opacity:1" /><path
       d="m 7.215,1.621 c 0,0 -0.068,8.139 0.89,11.97 0.984,3.936 3.557,6.36 7.621,6.84"
       id="path113"
       style="fill:#007d31;fill-opacity:1;stroke:#007d31;stroke-linejoin:round;stroke-miterlimit:10;stroke-opacity:1" /><line
       style="fill:#007d31;fill-opacity:1;stroke:#007d31;stroke-linejoin:round;stroke-miterlimit:10;stroke-opacity:1"
       x1="10.703"
       y1="18.516001"
       x2="14.328"
       y2="8.1870003"
       id="line115" /><line
       style="fill:#007d31;fill-opacity:1;stroke:#007d31;stroke-linejoin:round;stroke-miterlimit:10;stroke-opacity:1"
       x1="7.8990002"
       y1="12.496"
       x2="11.113"
       y2="5.7930002"
       id="line117" /><line
       style="fill:#007d31;fill-opacity:1;stroke:#007d31;stroke-linejoin:round;stroke-miterlimit:10;stroke-opacity:1"
       x1="4.0679998"
       y1="8.9390001"
       x2="7.6929998"
       y2="11.812"
       id="line119" /><line
       style="fill:#007d31;fill-opacity:1;stroke:#007d31;stroke-linejoin:round;stroke-miterlimit:10;stroke-opacity:1"
       x1="4.6849999"
       y1="17.079"
       x2="10.703"
       y2="17.968"
       id="line121" /><line
       style="fill:#007d31;fill-opacity:1;stroke:#007d31;stroke-linecap:round;stroke-linejoin:round;stroke-miterlimit:10;stroke-opacity:1"
       x1="14.738"
       y1="20.771999"
       x2="20.483999"
       y2="22.688"
       id="line123" /></g></svg>
