<svg xmlns="http://www.w3.org/2000/svg" width="1167.418" height="267.834" viewBox="0 0 1167.418 267.834"><linearGradient id="a" gradientUnits="userSpaceOnUse" x1="700.61" y1="255.06" x2="700.61" y2="12.896"><stop offset="0" stop-color="#43BFCC"/><stop offset="1" stop-color="#089CBE"/></linearGradient><path fill="url(#a)" d="M1128.02 143.06h-4.199c8.397-9 13.544-19.914 13.544-30.342 0-13.002-6.501-23.975-22.753-23.975-18.42 0-26.141 10.767-26.141 24.04 0 12.054 6.908 25.834 20.181 33.961-8.839 11.566-18.427 16.506-26.817 16.506-13.186 0-25.139-10.743-25.139-31.979 0-31.292 17.653-59.455 57.103-59.455 2.979-2.031 2.979-3.117 2.979-5.826-.271-1.49-1.625-1.761-2.979-1.761-49.725 0-83.638 26.107-85.378 70.227-16.073 16.17-35.191 35.414-48.301 35.414-17.742 0-22.754-15.033-22.754-31.286 0-7.585 1.762-15.305 5.824-23.837 6.772 10.429 16.93 14.627 24.515 14.627 20.451 0 40.496-17.471 40.496-38.329 0-18.013-14.221-23.837-31.964-23.837-36.632 0-62.603 34.285-66.086 70.55-16.336 14.606-28.574 24.122-32.242 24.122-6.366 0-6.637-5.824-6.637-12.461 0-10.835 16.117-69.345 16.388-69.345 13.273 0 37.382-.406 40.497-6.23l2.979-4.876-41.31 1.896c5.554-19.639 19.098-56.072 19.098-57.426l-.542-.542c-27.766 0-36.027 26.004-45.778 57.968l-11.377 1.083c-5.012.542-5.012 1.625-5.012 3.657 0 6.636 7.043 5.824 12.596 5.824-6.96 29.641-8.524 33.974-11.093 45.928-17.212 16.955-40.298 42.514-55.407 42.514-17.743 0-22.754-15.033-22.754-31.286 0-7.585 1.761-15.305 5.823-23.837 6.772 10.429 16.931 14.627 24.515 14.627 20.451 0 40.496-17.471 40.496-38.329 0-18.013-14.221-23.837-31.963-23.837-34.991 0-60.25 31.282-65.481 65.692-11.676 11.654-20.006 19.771-23.638 19.771-1.084 0-1.625-1.083-1.625-2.979 0-.948.271-2.303.541-3.928.812-3.928 13.002-33.318 13.002-57.697 0-11.919-3.25-20.858-15.169-20.858-24.379 0-49.977 31.151-61.625 54.176 3.386-11.106 7.179-23.837 7.179-35.891 0-6.366-2.438-18.014-10.429-18.014-27.494 0-49.165 32.505-61.354 53.905 4.47-15.846 11.648-33.318 14.898-49.706-17.065 0-24.379.542-27.9 6.636-4.959 7.921-10.898 29.356-15.699 50.913-7.62 8.093-13.232 13.835-18.974 13.835h-4.198c8.397-9 13.544-19.914 13.544-30.342 0-13.002-6.501-23.975-22.754-23.975-18.42 0-26.14 10.767-26.14 24.04 0 12.054 6.907 25.834 20.181 33.961-8.84 11.566-18.428 16.506-26.817 16.506-13.187 0-25.139-10.743-25.139-31.979 0-31.292 17.652-59.455 57.103-59.455 2.979-2.031 2.979-3.117 2.979-5.826-.271-1.49-1.625-1.761-2.979-1.761-49.725 0-83.638 26.107-85.378 70.227-16.074 16.17-35.191 35.414-48.301 35.414-17.742 0-22.754-15.033-22.754-31.286 0-7.585 1.761-15.305 5.824-23.837 6.771 10.429 16.93 14.627 24.515 14.627 20.451 0 40.496-17.471 40.496-38.329 0-18.013-14.222-23.837-31.964-23.837-36.646 0-62.621 34.308-66.091 70.588-6.876 6.661-14.059 13.217-23.705 22.323l20.722-87.629c-11.647-2.167-29.39-5.282-40.496-5.282-44.56 0-75.981 49.977-75.981 90.473 0 12.732 6.365 27.224 18.284 27.224 14.221 0 27.224-4.198 51.873-26.14l-4.334 23.025-37.517 28.848c-10.835 8.397-21.128 15.034-21.128 24.921 0 13.409 14.221 19.503 25.598 19.503 22.482 0 51.603-29.39 60.135-77.199l26.481-25.723c2.253 19.888 15.63 33.055 35.488 33.055 22.513 0 42.084-13.723 63.774-35.763 3.293 18.416 15.036 35.473 39.628 35.473 19.269 0 35.642-11.377 49.3-32.911 3.386.406 6.637.541 9.48.541 5.628 0 10.527-2.196 15.627-6.14-2.797 14.469-4.768 27.667-5.198 34.667h25.869c4.47-18 23.566-77.107 48.758-88.755.812-.271 2.032-.563 2.845-.563 3.25 0 6.365 2.698 6.365 7.98 0 .812 0 1.934-.271 3.017-4.74 25.598-17.472 51.321-17.472 78.321h26.004c5.282-19 28.307-88.755 51.603-88.755 5.282 0 8.939 5.261 8.939 9.865 0 22.212-18.826 46.039-18.826 71.096 0 7.449 2.979 11.913 7.99 11.913 7.798 0 29.875-18.789 47.899-36.151 1.156 21.613 14.863 36.166 35.74 36.166 23.323 0 43.487-14.727 66.124-38.172-.79 4.779-1.457 10.16-1.457 15.398 0 12.189 3.25 22.482 16.117 22.482 16.12 0 33.077-14.497 51.663-31.787 2.576 19.339 15.832 32.077 35.362 32.077 22.514 0 42.084-13.723 63.774-35.763 3.293 18.416 15.036 35.473 39.628 35.473 19.27 0 35.642-11.377 49.3-32.911 3.386.406 6.336.541 9.182.541 10.293 0 17.953-7.449 28.953-19.232v-14.898c-13.999 13.54-20.391 24.653-28.381 24.653zm-131.512-63.664c7.855 0 12.731 2.844 12.731 13.138 0 12.731-8.804 25.192-19.368 25.192-7.991 0-16.388-5.011-22.754-13.273 2.845-8.127 13.274-25.057 29.391-25.057zm-167.81 0c7.855 0 12.731 2.844 12.731 13.138 0 12.731-8.804 25.192-19.368 25.192-7.99 0-16.388-5.011-22.754-13.273 2.845-8.127 13.274-25.057 29.391-25.057zm-398.055 0c7.855 0 12.73 2.844 12.73 13.138 0 12.731-8.803 25.192-19.367 25.192-7.991 0-16.389-5.011-22.754-13.273 2.844-8.127 13.272-25.057 29.391-25.057zm-148.849 168.215c-6.771 0-10.022-2.031-10.022-9.209 0-13.002 8.533-17.473 14.898-22.754l22.212-18.826c-3.25 28.578-11.918 50.789-27.088 50.789zm35.215-104.424c-11.648 13.139-21.941 20.046-29.391 20.046-8.126 0-13.138-8.397-13.138-26.14 0-27.088 19.774-62.302 44.966-62.302 3.386 0 6.637.812 13.273 2.438l-15.71 65.958zm233.497-5.553c-7.991-5.281-13.95-15.304-13.95-22.889 0-7.314 3.251-13.138 10.971-13.138 8.397 0 11.106 5.553 11.106 12.46 0 7.857-4.606 19.64-8.127 23.567zm565.865 0c-7.99-5.281-13.95-15.304-13.95-22.889 0-7.314 3.251-13.138 10.971-13.138 8.397 0 11.106 5.553 11.106 12.46 0 7.857-4.605 19.64-8.127 23.567z"/><linearGradient id="b" gradientUnits="userSpaceOnUse" x1="116.694" y1="252.06" x2="116.694" y2="12.06"><stop offset="0" stop-color="#43BFCC"/><stop offset="1" stop-color="#089CBE"/></linearGradient><path fill="url(#b)" d="M116.694 12.06c-55.14 0-100 44.966-100 100.237 0 25.738 9.741 50.217 27.43 68.922l.087.09 69.124 69.354c.929.932 2.144 1.397 3.359 1.397s2.431-.466 3.359-1.397l69.123-69.354.088-.09c17.688-18.705 27.43-43.184 27.43-68.922 0-55.271-44.861-100.237-100-100.237z"/><g fill="#FFE03E"><circle cx="116.694" cy="111.71" r="37.5"/><path d="M116.402 69.044c2.2 0 4-2.25 4-5v-22c0-2.75-1.8-5-4-5s-4 2.25-4 5v22c0 2.75 1.8 5 4 5zM116.402 155.043c-2.2 0-4 2.25-4 5v22c0 2.75 1.8 5 4 5s4-2.25 4-5v-22c0-2.75-1.799-5-4-5zM73.694 112.06c0-2.2-2.25-4-5-4h-22c-2.75 0-5 1.8-5 4s2.25 4 5 4h22c2.75 0 5-1.8 5-4zM164.694 108.06c-2.75 0-5 1.8-5 4s2.25 4 5 4h22c2.75 0 5-1.8 5-4s-2.25-4-5-4h-22zM85.991 142.413c-1.535-1.535-4.382-1.2-6.326.744l-15.259 15.26c-1.944 1.944-2.279 4.791-.745 6.326 1.535 1.534 4.382 1.199 6.326-.746l15.26-15.258c1.944-1.945 2.279-4.791.744-6.326zM147.397 81.007c1.535 1.535 4.382 1.201 6.326-.744l15.259-15.258c1.944-1.945 2.279-4.793.745-6.328-1.535-1.535-4.382-1.2-6.326.744l-15.26 15.259c-1.944 1.944-2.279 4.792-.744 6.327zM85.991 81.007c1.535-1.535 1.2-4.383-.744-6.327l-15.26-15.259c-1.944-1.944-4.791-2.279-6.326-.744-1.534 1.535-1.199 4.383.745 6.328l15.259 15.258c1.944 1.945 4.791 2.279 6.326.744zM147.397 142.413c-1.535 1.535-1.2 4.382.744 6.326l15.26 15.258c1.944 1.945 4.791 2.28 6.326.746 1.534-1.535 1.199-4.382-.745-6.326l-15.259-15.26c-1.944-1.945-4.791-2.28-6.326-.744z"/></g></svg>